<?xml version="1.0" encoding="UTF-8"?>
<svg version="1.1" xmlns="http://www.w3.org/2000/svg" width="1877" height="1485">
<path d="M0 0 C0.33 0.66 0.66 1.32 1 2 C0.29572934 3.90648597 0.29572934 3.90648597 -0.8948946 6.28477383 C-1.56714478 7.64214552 -1.56714478 7.64214552 -2.25297576 9.02693886 C-3.01168457 10.5279026 -3.01168457 10.5279026 -3.78572083 12.05918884 C-4.57627374 13.64647957 -4.57627374 13.64647957 -5.38279742 15.26583678 C-6.85357839 18.21481463 -8.33150249 21.16001284 -9.81247556 24.10387266 C-11.40605048 27.27585948 -12.99043056 30.45243394 -14.57592773 33.62846375 C-17.68838417 39.85961988 -20.80934246 46.08648088 -23.93305812 52.3119989 C-27.57601103 59.57323125 -31.21026372 66.83880558 -34.8440698 74.1046185 C-41.33779239 87.08818087 -47.83895307 100.06800433 -54.34448242 113.0456543 C-60.64152189 125.60742186 -66.93416882 138.17137523 -73.22143555 150.73803711 C-73.60734066 151.50936184 -73.99324577 152.28068658 -74.39084498 153.07538479 C-75.94253392 156.17683344 -77.49421602 159.27828551 -79.04588317 162.37974506 C-85.41482126 175.10959318 -91.78744909 187.83759437 -98.1605165 200.56537557 C-99.60730541 203.45482479 -101.05393277 206.34435481 -102.50041795 209.2339561 C-106.30956972 216.84327607 -110.11991051 224.45199657 -113.93371568 232.05898552 C-115.50950846 235.20207791 -117.08475962 238.34543785 -118.65830803 241.48965454 C-124.03266146 252.22567623 -129.40605852 262.95687125 -135.03385925 273.5627594 C-141.10152752 284.99806209 -146.85641568 296.58846881 -152.63476562 308.171875 C-153.87082243 310.64648518 -155.10750153 313.12078422 -156.34416199 315.59509277 C-158.98788295 320.88539597 -161.6301885 326.176404 -164.27153015 331.46789551 C-168.10074842 339.13900525 -171.93264159 346.80877651 -175.76521975 354.47820807 C-182.00000545 366.95481748 -188.23329491 379.43217371 -194.46533203 391.91015625 C-194.83686199 392.65404397 -195.20839194 393.3979317 -195.59118038 394.16436148 C-198.22749396 399.44288749 -200.8637533 404.72144059 -203.5 410 C-206.51151855 416.02996662 -209.52306168 422.05992096 -212.53466797 428.08984375 C-213.09126873 429.20428746 -213.09126873 429.20428746 -213.65911394 430.34124517 C-219.87084488 442.77844558 -226.08417919 455.21484432 -232.2986331 467.65068436 C-236.11649257 475.29085328 -239.93294074 482.93172389 -243.74749124 490.57354546 C-246.364879 495.81681855 -248.98373133 501.05935846 -251.60368168 506.30135155 C-253.10877533 509.3128684 -254.6130037 512.32480879 -256.11585045 515.33744812 C-262.26968563 527.67263987 -268.49061664 539.96006588 -274.96486664 552.1305542 C-277.99493534 557.84606797 -280.77870653 563.68396388 -283.49414062 569.5546875 C-283.88408203 570.36164062 -284.27402344 571.16859375 -284.67578125 572 C-285.00489502 572.70125 -285.33400879 573.4025 -285.6730957 574.125 C-288.38596924 577.95846252 -293.03337753 579.53762462 -297.27954102 581.22851562 C-298.8646196 581.86339149 -298.8646196 581.86339149 -300.48171997 582.51109314 C-301.64404144 582.9714949 -302.80636292 583.43189667 -304.00390625 583.90625 C-305.26909815 584.41101441 -306.53413842 584.91615901 -307.79904175 585.42164612 C-311.30696711 586.82220555 -314.81704648 588.21729504 -318.32746506 589.61159134 C-322.12528537 591.12119479 -325.92102679 592.63600867 -329.71704102 594.15014648 C-338.47567576 597.64254623 -347.23696845 601.12824674 -355.99865723 604.61297607 C-362.3780032 607.15020285 -368.75690726 609.68853952 -375.13574219 612.22705078 C-376.82806961 612.9005145 -376.82806961 612.9005145 -378.55458546 613.58758354 C-384.4079825 615.91699255 -390.26130748 618.24658253 -396.11454773 620.5763855 C-398.490996 621.52228114 -400.86744559 622.46817346 -403.24389648 623.4140625 C-404.42307994 623.88341784 -405.60226339 624.35277317 -406.81717968 624.83635139 C-413.76303945 627.60081276 -420.70958289 630.3635472 -427.65669918 633.12484932 C-457.48000983 644.97976961 -487.26080586 656.93557767 -517 669 C-514.43557646 671.68035594 -511.94558369 673.26224907 -508.65234375 675.00390625 C-507.58201904 675.57415527 -506.51169434 676.1444043 -505.40893555 676.73193359 C-504.26336182 677.33602051 -503.11778809 677.94010742 -501.9375 678.5625 C-500.14328489 679.51695529 -498.35024387 680.47358906 -496.55732727 681.43048096 C-495.36335535 682.06770796 -494.16909061 682.70438661 -492.97453308 683.34051514 C-488.35152835 685.80418917 -483.7592665 688.317761 -479.1875 690.875 C-472.11660677 694.82497008 -465.0301051 698.74595164 -457.93643188 702.65484619 C-446.68297443 708.85620591 -435.44281658 715.0808971 -424.21459961 721.32788086 C-418.16222733 724.69337948 -412.10453946 728.04881472 -406.0390625 731.390625 C-405.37602112 731.75599365 -404.71297974 732.1213623 -404.02984619 732.49780273 C-400.81299121 734.27013228 -397.59545084 736.04120231 -394.37695312 737.81054688 C-393.22388672 738.44541016 -392.07082031 739.08027344 -390.8828125 739.734375 C-389.86590332 740.29350586 -388.84899414 740.85263672 -387.80126953 741.42871094 C-385.16957505 742.90488191 -382.57842665 744.43298733 -380 746 C-381.73723597 752.0906666 -384.65231839 757.56045238 -387.5 763.1875 C-387.97953125 764.14591797 -388.4590625 765.10433594 -388.953125 766.09179688 C-392.1276911 772.40411066 -395.39456618 778.66319715 -398.6953125 784.91015625 C-403.84338341 794.65725609 -408.8658563 804.46624119 -413.86737061 814.28918457 C-416.49224752 819.44414911 -419.12146183 824.59690168 -421.75 829.75 C-422.54354385 831.30608978 -422.54354385 831.30608978 -423.3531189 832.89361572 C-428.34748336 842.68571385 -433.35753182 852.46972338 -438.375 862.25 C-438.78305878 863.04549255 -439.19111755 863.84098511 -439.61154175 864.6605835 C-445.74581822 876.61793235 -451.89172213 888.56928606 -458.04077148 900.51904297 C-465.05984219 914.16043408 -472.0558647 927.81357417 -479.04711914 941.46923828 C-479.93765639 943.20866211 -480.82820001 944.94808269 -481.71875 946.6875 C-482.15944321 947.54826141 -482.60013641 948.40902283 -483.05418396 949.29586792 C-486.02325308 955.09433821 -488.99498708 960.89143565 -491.96875 966.6875 C-492.37385803 967.47709106 -492.77896606 968.26668213 -493.1963501 969.0802002 C-494.01374778 970.67334265 -494.83115094 972.2664823 -495.64855957 973.85961914 C-503.32206836 988.81559098 -510.97827871 1003.78031516 -518.625 1018.75 C-526.18288625 1033.54540511 -533.75943168 1048.33095805 -541.36376953 1063.10253906 C-546.92006896 1073.89612191 -552.46242928 1084.69679758 -558 1095.5 C-573.31107707 1125.36765255 -588.67789165 1155.20656871 -604.05212402 1185.04174805 C-612.31006494 1201.0671919 -620.56592074 1217.09370585 -628.8125 1233.125 C-629.17955048 1233.83847595 -629.54660095 1234.5519519 -629.92477417 1235.28704834 C-634.3678353 1243.92434265 -638.80351772 1252.5653745 -643.23046875 1261.2109375 C-644.11808009 1262.94384898 -645.00569401 1264.67675915 -645.89331055 1266.40966797 C-647.57177926 1269.68671347 -649.24884796 1272.96446983 -650.92504883 1276.24267578 C-656.5358382 1287.20482277 -662.244293 1298.11328338 -668 1309 C-668.66 1309 -669.32 1309 -670 1309 C-669.39744567 1300.92847116 -668.54010781 1292.92837581 -667.44917297 1284.90910339 C-667.29392765 1283.74971388 -667.13868232 1282.59032437 -666.97873259 1281.39580184 C-666.55083179 1278.2047635 -666.12025839 1275.01409953 -665.68851282 1271.82357955 C-665.21956059 1268.35304691 -664.75413528 1264.88204099 -664.28825665 1261.41109467 C-663.47561637 1255.36028529 -662.66076388 1249.30977713 -661.84442139 1243.25946617 C-660.64120719 1234.34179029 -659.44144266 1225.42365275 -658.24241658 1216.50541291 C-656.24899378 1201.67923301 -654.25282852 1186.85342362 -652.2550354 1172.02783203 C-650.29577858 1157.4881428 -648.33776328 1142.94828727 -646.38143921 1128.40820312 C-646.26033265 1127.50810002 -646.1392261 1126.60799692 -646.01444965 1125.68061797 C-645.40179015 1121.12707423 -644.78915592 1116.57352709 -644.17653406 1112.01997828 C-642.9471069 1102.88184074 -641.7175055 1093.74372664 -640.48783875 1084.60562134 C-640.36599947 1083.70018784 -640.24416019 1082.79475435 -640.11862881 1081.86188348 C-637.41006661 1061.73388617 -634.69965333 1041.60613822 -631.98907794 1021.47841194 C-626.99524128 984.39600775 -622.00526642 947.31308549 -617.01815248 910.22977662 C-616.47361826 906.18071656 -615.92906774 902.1316587 -615.38451195 898.08260155 C-615.29609509 897.42517586 -615.20767824 896.76775017 -615.11658208 896.09040249 C-614.85109308 894.11635451 -614.58560361 892.14230659 -614.32011414 890.16825867 C-614.14682884 888.87979481 -613.97354354 887.59133095 -613.79500717 886.26382273 C-613.44973236 883.69653109 -613.10445718 881.12923949 -612.75918162 878.56194794 C-612.4208626 876.04637309 -612.0825459 873.53079792 -611.74423158 871.01522243 C-608.18099255 844.5203975 -604.61616268 818.02578671 -601.05078125 791.53125 C-600.91713606 790.53812121 -600.78349087 789.54499241 -600.64579582 788.52176881 C-599.0972623 777.01450378 -597.5486725 765.50724633 -596 754 C-599.38458146 751.74361236 -602.90084422 750.28748333 -606.64453125 748.75390625 C-607.81469536 748.27000931 -607.81469536 748.27000931 -609.00849915 747.77633667 C-611.60857961 746.70199372 -614.21053048 745.63225879 -616.8125 744.5625 C-618.65295457 743.80311267 -620.49328427 743.04342264 -622.33349609 742.28344727 C-626.22734313 740.67590666 -630.12194138 739.07020484 -634.01708984 737.46582031 C-639.87424729 735.05278062 -645.72846791 732.63268039 -651.58203125 730.2109375 C-671.37446283 722.02406379 -691.17796346 713.86462124 -710.99682617 705.74194336 C-722.1479774 701.17161638 -733.29443338 696.59000355 -744.4375 692 C-745.1857605 691.69178314 -745.934021 691.38356628 -746.70495605 691.06600952 C-750.80345209 689.37769887 -754.90179784 687.6890239 -759 686 C-758 683 -758 683 -755.87158203 681.73583984 C-754.92653809 681.31512207 -753.98149414 680.8944043 -753.0078125 680.4609375 C-751.92822266 679.97173828 -750.84863281 679.48253906 -749.73632812 678.97851562 C-747.9487207 678.18477539 -747.9487207 678.18477539 -746.125 677.375 C-743.55184031 676.21195751 -740.98280149 675.0399562 -738.4140625 673.8671875 C-737.39732452 673.40436371 -737.39732452 673.40436371 -736.36004639 672.93218994 C-728.3366395 669.26587733 -720.42216055 665.37884745 -712.5 661.5 C-702.08935892 656.41163552 -691.65408938 651.4021867 -681.125 646.5625 C-670.1729651 641.52737544 -659.32761121 636.29606035 -648.5 631 C-636.57029558 625.16487779 -624.60233349 619.44901118 -612.53515625 613.90234375 C-603.12696055 609.56176903 -593.80962015 605.04728896 -584.5 600.5 C-574.08801567 595.41426066 -563.65418004 590.40222837 -553.125 585.5625 C-541.36163216 580.15437056 -529.7233375 574.51153714 -518.09375 568.82299805 C-508.15090643 563.96189486 -498.18335252 559.18102479 -488.125 554.5625 C-470.83107 546.61968947 -453.69985536 538.29877557 -436.66876221 529.80703735 C-435.36154647 529.17484906 -434.02080226 528.61191335 -432.67089844 528.0769043 C-430.1870676 526.47606008 -429.52196524 524.55270432 -428.328125 521.875 C-427.83707275 520.7936377 -427.34602051 519.71227539 -426.84008789 518.59814453 C-426.05299438 516.81706299 -426.05299438 516.81706299 -425.25 515 C-424.68437936 513.74654695 -424.11720444 512.49379427 -423.54858398 511.24169922 C-422.64442616 509.25057595 -421.74116326 507.2591009 -420.8422699 505.26559448 C-417.66713738 498.22853407 -414.37611727 491.24756777 -411.07580566 484.26855469 C-409.37114741 480.66250734 -407.67185259 477.05393601 -405.97265625 473.4453125 C-405.63769135 472.73409241 -405.30272644 472.02287231 -404.95761108 471.2901001 C-401.62086033 464.20157126 -398.30857283 457.10171371 -395 450 C-389.68773618 438.59811419 -384.34064127 427.21295917 -378.97949219 415.83398438 C-374.01200401 405.28938338 -369.06891117 394.73374825 -364.14651489 384.16802979 C-359.77324556 374.78231499 -355.37319159 365.40949605 -350.95898438 356.04296875 C-347.96896901 349.69704703 -344.98407824 343.34871518 -342 337 C-341.51095184 335.96002869 -341.51095184 335.96002869 -341.01202393 334.89904785 C-339.12606947 330.88760811 -337.24423207 326.87428706 -335.36868286 322.85797119 C-334.51779801 321.03806705 -333.66311373 319.21994084 -332.80834961 317.40185547 C-332.30440674 316.32049316 -331.80046387 315.23913086 -331.28125 314.125 C-330.83845703 313.17882812 -330.39566406 312.23265625 -329.93945312 311.2578125 C-328.87194612 309.09982189 -328.87194612 309.09982189 -329 307 C-329.60658447 307.30591064 -330.21316895 307.61182129 -330.83813477 307.92700195 C-342.55832999 313.83051584 -354.30476349 319.66262608 -366.15893555 325.29248047 C-376.26544487 330.10350468 -386.31852685 335.02297336 -396.375 339.9375 C-407.40094296 345.3249346 -418.42699976 350.70978034 -429.5 356 C-440.36215417 361.19115375 -451.18222856 366.46718865 -462 371.75 C-474.65927529 377.93199416 -487.3215684 384.10737284 -500 390.25 C-500.66572021 390.57254761 -501.33144043 390.89509521 -502.01733398 391.22741699 C-505.34604269 392.84006952 -508.67493197 394.45234889 -512.00390625 396.06445312 C-518.1467976 399.03946881 -524.28803683 402.01789243 -530.42944336 404.99597168 C-533.86956526 406.66411239 -537.30978757 408.332046 -540.75 410 C-542.12500048 410.66666567 -543.50000048 411.33333234 -544.875 412 C-569.625 424 -594.375 436 -619.125 448 C-619.80563507 448.33000504 -620.48627014 448.66001007 -621.18753052 449.00001526 C-622.56242831 449.66663206 -623.93732658 450.33324787 -625.31222534 450.99986267 C-628.75129312 452.66728407 -632.19035246 454.33472286 -635.62939453 456.00219727 C-641.79818513 458.99321309 -647.96703271 461.98411106 -654.13619995 464.97434998 C-668.88512495 472.12326478 -683.6320735 479.27622187 -698.375 486.4375 C-699.09625061 486.78781281 -699.81750122 487.13812561 -700.56060791 487.49905396 C-709.53152536 491.85626726 -718.50115257 496.21612145 -727.46946716 500.57868958 C-733.31173694 503.42006765 -739.15682177 506.2556103 -745.00318909 509.08854675 C-749.42044269 511.23012263 -753.83060401 513.38565967 -758.23828125 515.546875 C-760.34622373 516.57318461 -762.45428707 517.59924606 -764.5625 518.625 C-765.98127441 519.32665283 -765.98127441 519.32665283 -767.42871094 520.04248047 C-768.70343262 520.65953857 -768.70343262 520.65953857 -770.00390625 521.2890625 C-770.73424072 521.64693848 -771.4645752 522.00481445 -772.21704102 522.37353516 C-772.80541748 522.58026855 -773.39379395 522.78700195 -774 523 C-774.66 522.67 -775.32 522.34 -776 522 C-774.1953125 520.96875 -774.1953125 520.96875 -772.390625 519.9375 C-771.58786133 519.47875488 -770.78509766 519.02000977 -769.95800781 518.54736328 C-768.11368646 517.49351287 -766.26928211 516.4398077 -764.42480469 515.38623047 C-759.03128278 512.30509953 -753.63943449 509.22108811 -748.25 506.1328125 C-745.91689579 504.79647452 -743.58353998 503.46057687 -741.25 502.125 C-740.65912598 501.78680237 -740.06825195 501.44860474 -739.45947266 501.10015869 C-730.06021645 495.72300619 -720.61945473 490.42381842 -711.15991211 485.15332031 C-703.99190511 481.14721668 -696.89148194 477.03608102 -689.8125 472.875 C-681.3177922 467.88372799 -672.74270008 463.07969874 -664.07519531 458.39575195 C-656.08457585 454.0707322 -648.1980747 449.57723833 -640.3203125 445.05078125 C-634.87512203 441.92245807 -629.40782293 438.83410512 -623.9375 435.75 C-615.91111975 431.22254397 -607.90381161 426.66265821 -599.90710449 422.08303833 C-588.3147351 415.44456267 -576.68212051 408.88167742 -565.01953125 402.3671875 C-556.27509908 397.48113206 -547.55983205 392.54355208 -538.84277344 387.60888672 C-534.06306263 384.90377729 -529.28142898 382.2020709 -524.5 379.5 C-522.58332424 378.41668275 -520.66665757 377.33334943 -518.75 376.25 C-392.25 304.75 -392.25 304.75 -389.3762207 303.12573242 C-387.45543654 302.04004345 -385.53470103 300.95426842 -383.61401367 299.8684082 C-378.88573547 297.19541578 -374.15668088 294.52381913 -369.42578125 291.85546875 C-358.37425673 285.61956837 -347.34675635 279.34301235 -336.33486938 273.03744507 C-327.06578689 267.73177719 -317.76067424 262.49327476 -308.43408203 257.28930664 C-299.99837265 252.57562577 -291.60669804 247.78721986 -283.2232666 242.98150635 C-274.92761669 238.22714231 -266.60296745 233.5281316 -258.25 228.875 C-250.04593286 224.30415334 -241.90877077 219.63405137 -233.8125 214.875 C-225.32060847 209.88538276 -216.74813204 205.08340669 -208.08398438 200.40014648 C-200.02693787 196.03833337 -192.06222023 191.52785407 -184.12890625 186.9453125 C-180.69841585 184.96429746 -177.24843128 183.02612298 -173.77734375 181.1171875 C-165.06349597 176.28460596 -157.47526827 171.75004144 -151 164 C-149.93767767 162.79151047 -148.87517683 161.58317782 -147.8125 160.375 C-147.25691406 159.72789062 -146.70132813 159.08078125 -146.12890625 158.4140625 C-143.23405114 155.13145615 -140.24249035 151.94350833 -137.25 148.75 C-131.12107666 142.20724476 -125.0465241 135.61897609 -119 129 C-111.85861003 121.19525886 -104.69531432 113.4110811 -97.51611328 105.64111328 C-95.00985896 102.92822415 -92.50497855 100.21406708 -90 97.5 C-86.98897128 94.23764315 -83.97764474 90.97556408 -80.96484375 87.71484375 C-76.13369408 82.48524875 -71.3081505 77.25075622 -66.5 72 C-60.18064701 65.09893023 -53.8299052 58.2269687 -47.47949219 51.35449219 C-42.14302505 45.57875316 -36.81064282 39.79950458 -31.5 34 C-26.20266134 28.21502427 -20.88337788 22.45051714 -15.56005859 16.68945312 C-13.92040977 14.91380839 -12.28230704 13.1367474 -10.64453125 11.359375 C-9.82359985 10.46883423 -9.82359985 10.46883423 -8.98608398 9.56030273 C-7.93449965 8.41947955 -6.88321629 7.27837884 -5.83227539 6.13696289 C-3.9166869 4.05959475 -1.99835781 1.99835781 0 0 Z " fill="#CC0003" transform="translate(1788,176)"/>
<path d="M0 0 C4.95779174 4.06913096 9.42130971 8.39730668 13.75 13.125 C14.35634277 13.78097168 14.96268555 14.43694336 15.58740234 15.11279297 C17.395803 17.0713788 19.19866956 19.03491224 21 21 C21.97651244 22.06254601 22.95307112 23.12504952 23.9296875 24.1875 C25.71791011 26.13640348 27.50438708 28.08691021 29.2890625 30.0390625 C32.18206474 33.20255728 35.09041772 36.35175926 38 39.5 C41.84241785 43.6584021 45.67661597 47.82409074 49.5 52 C55.31495038 58.35033154 61.15641886 64.67602169 67 71 C73.29846975 77.81626302 79.59025261 84.63829457 85.85791016 91.48291016 C90.71841122 96.78859486 95.60080912 102.07398724 100.48388672 107.35888672 C103.48958138 110.61239388 106.49339394 113.86763876 109.49755859 117.12255859 C112.00946922 119.84399973 114.52183529 122.56501749 117.03515625 125.28515625 C122.32042386 131.00632222 127.5960005 136.73604232 132.85571289 142.48071289 C135.22221726 145.0642422 137.59235033 147.64431702 139.96875 150.21875 C140.46753662 150.75927002 140.96632324 151.29979004 141.48022461 151.85668945 C142.49208734 152.95080158 143.50592013 154.04309508 144.52172852 155.13354492 C146.98395503 157.7824542 149.40366691 160.45128458 151.74609375 163.20703125 C152.19919922 163.72910156 152.65230469 164.25117188 153.11914062 164.7890625 C154.33980684 166.19961013 155.54371671 167.62461153 156.74609375 169.05078125 C164.54600222 176.89440199 176.41314806 181.99201292 186 187.25 C188.38132322 188.56309001 190.76111557 189.87893901 193.140625 191.1953125 C193.72757141 191.51978363 194.31451782 191.84425476 194.91925049 192.17855835 C200.22289198 195.11447296 205.49237596 198.10764254 210.75 201.125 C217.83930023 205.19346498 224.94277838 209.234986 232.0625 213.25 C241.28249119 218.45087964 250.47505755 223.6988073 259.66055298 228.96026611 C267.99553719 233.73283965 276.35961445 238.45034721 284.75 243.125 C292.95403639 247.6959036 301.09122779 252.36594778 309.1875 257.125 C317.68361597 262.11709941 326.26001694 266.92215341 334.92919922 271.60644531 C341.97866202 275.42168699 348.94640586 279.36487763 355.89526367 283.35986328 C362.73631456 287.28921933 369.611689 291.15416227 376.5 295 C385.04399079 299.77192014 393.55808637 304.59160169 402.046875 309.4609375 C408.84004219 313.35156962 415.66542899 317.18264205 422.5 321 C431.04390158 325.77208161 439.55808459 330.59160067 448.046875 335.4609375 C454.84004219 339.35156962 461.66542899 343.18264205 468.5 347 C477.04390158 351.77208161 485.55808459 356.59160067 494.046875 361.4609375 C500.84004219 365.35156962 507.66542899 369.18264205 514.5 373 C523.04390158 377.77208161 531.55808459 382.59160067 540.046875 387.4609375 C546.84004275 391.35156994 553.66545463 395.18259537 560.5 399 C569.09061046 403.79886108 577.65427285 408.64100189 586.19189453 413.53344727 C592.57423068 417.18957779 598.97049209 420.820354 605.375 424.4375 C606.81540649 425.25105957 606.81540649 425.25105957 608.28491211 426.08105469 C612.12383647 428.24863031 615.96328314 430.41527796 619.80322266 432.58105469 C631.77818768 439.33551572 643.73097825 446.1272237 655.66110229 452.96054077 C663.99590066 457.73302857 672.35979238 462.45044634 680.75 467.125 C688.95403639 471.6959036 697.09122779 476.36594778 705.1875 481.125 C713.67798343 486.11378987 722.24915302 490.9147375 730.91162109 495.59765625 C746.4839783 504.02881879 761.76587061 512.97532571 777 522 C776.34 522.33 775.68 522.66 775 523 C772.26553788 521.84178652 769.64723409 520.61403102 766.99609375 519.28515625 C766.17884323 518.88343201 765.36159271 518.48170776 764.51957703 518.06781006 C761.82194271 516.73988936 759.12984755 515.40110253 756.4375 514.0625 C754.56211472 513.13739576 752.68629674 512.21316822 750.81005859 511.28979492 C747.00552428 509.41686975 743.20264427 507.54064821 739.40087891 505.66210938 C732.65253101 502.33128845 725.88248913 499.04597356 719.10702515 495.77075195 C715.76825325 494.15655211 712.4311091 492.53899319 709.09375 490.921875 C708.43312057 490.60186523 707.77249115 490.28185547 707.09184265 489.95214844 C699.26676114 486.16136682 691.44586157 482.36197813 683.625 478.5625 C682.15983118 477.85074776 680.69466191 477.13899646 679.22949219 476.42724609 C674.0835026 473.92735951 668.93762565 471.42724112 663.79174805 468.92712402 C643.22972435 458.93715929 622.66399302 448.95490208 602.09277344 438.98388672 C595.91643248 435.99011849 589.74049037 432.99552766 583.56451416 430.00100708 C580.12635873 428.33397181 576.6881781 426.66698851 573.25 425 C571.87499988 424.33333358 570.49999988 423.66666692 569.125 423 C568.1040625 422.505 568.1040625 422.505 567.0625 422 C527.87500062 403.0000003 527.87500062 403.0000003 525.81246948 401.99998474 C524.43757169 401.33336794 523.06267342 400.66675213 521.68777466 400.00013733 C518.24870688 398.33271593 514.80964754 396.66527714 511.37060547 394.99780273 C505.20181487 392.00678691 499.03296729 389.01588894 492.86380005 386.02565002 C478.11487518 378.87673528 463.36786437 371.72390585 448.625 364.5625 C447.90175537 364.21119019 447.17851074 363.85988037 446.43334961 363.4979248 C439.04661228 359.90981078 431.66019311 356.32104319 424.27441406 352.73095703 C420.55806392 350.92455523 416.84157865 349.11843162 413.125 347.3125 C412.39297363 346.95679932 411.66094727 346.60109863 410.90673828 346.23461914 C400.01154586 340.94125702 389.10627938 335.66921259 378.19506836 330.40893555 C362.10942167 322.64850292 346.0564432 314.82062395 330 307 C331.4035061 311.50013066 333.17347075 315.7233033 335.203125 319.96875 C335.51715271 320.63289917 335.83118042 321.29704834 336.15472412 321.98132324 C336.83066773 323.4099649 337.50814463 324.83788193 338.18701172 326.26513672 C339.63941131 329.31871179 341.08442238 332.37576431 342.52990723 335.43261719 C343.27293417 337.00376109 344.01634502 338.57472349 344.76013184 340.14550781 C348.20226188 347.41698385 351.60510213 354.70638173 355 362 C359.97420172 372.67887562 364.97902524 383.34304114 370 394 C375.30843342 405.26708643 380.59437306 416.54426583 385.85449219 427.83398438 C390.54553528 437.90073819 395.26683994 447.95298667 400 458 C404.54155618 467.64271209 409.08303844 477.28545266 413.59326172 486.94287109 C414.76671372 489.45480304 415.94859263 491.96249491 417.13720703 494.46728516 C419.78669869 500.07396894 422.31411576 505.68242792 424.53125 511.4765625 C429.0272464 523.68497691 429.0272464 523.68497691 438.8125 531.5 C440.97245406 532.37217729 443.14794375 533.17621702 445.34033203 533.96337891 C450.33464018 535.90993962 455.0854202 538.39139524 459.8855896 540.76867676 C463.04332539 542.32487975 466.21623767 543.8492096 469.390625 545.37109375 C470.02896774 545.6771756 470.66731049 545.98325745 471.32499695 546.2986145 C477.68911439 549.34208353 484.09253935 552.29904875 490.5 555.25 C502.3845458 560.72412987 514.14901898 566.42618157 525.90258789 572.1751709 C535.88842818 577.05719378 545.89928473 581.85913082 556 586.5 C567.7219096 591.88574225 579.31740219 597.50845114 590.90478516 603.17626953 C600.88989273 608.0579229 610.9000305 612.85947347 621 617.5 C631.91099111 622.51315808 642.71416388 627.72427464 653.5 633 C665.42673756 638.83370069 677.39136792 644.54902351 689.45605469 650.09326172 C699.70851079 654.82254406 709.85541311 659.75894027 719.99511719 664.72445679 C727.46441095 668.38170856 734.93523859 672.01657338 742.5234375 675.421875 C743.64911133 675.9276709 744.77478516 676.4334668 745.93457031 676.95458984 C748.00501725 677.87637285 750.07969141 678.78874058 752.15917969 679.68994141 C753.50737793 680.28814697 753.50737793 680.28814697 754.8828125 680.8984375 C756.04901123 681.40383057 756.04901123 681.40383057 757.23876953 681.91943359 C759 683 759 683 760 686 C737.39507998 695.34763443 714.78786847 704.68924653 692.15203857 713.96182251 C682.58629927 717.88080137 673.02564171 721.81174038 663.47265625 725.76171875 C662.48248505 726.17108673 661.49231384 726.58045471 660.47213745 727.00222778 C655.70864974 728.97194919 650.94570395 730.94296629 646.18359375 732.91601562 C634.89384998 737.58911205 623.58309822 742.20877936 612.26147461 746.80395508 C610.7736484 747.40806827 609.28583247 748.0122068 607.79802704 748.61637115 C604.19880294 750.07787219 600.59944088 751.53903294 597 753 C607.92369832 834.77644145 618.86913886 916.54992812 629.8671875 998.31640625 C629.9901742 999.23077578 630.11316091 1000.1451453 630.23987448 1001.08722299 C633.23526735 1023.35687828 636.23164311 1045.62640128 639.22850493 1067.89585893 C641.14335266 1082.12495047 643.05789412 1096.35408319 644.97216797 1110.58325195 C645.10009475 1111.53415589 645.22802153 1112.48505982 645.35982488 1113.46477903 C646.00357452 1118.24990269 646.64731957 1123.03502696 647.29106307 1127.82015145 C649.98811602 1147.86805039 652.68526133 1167.91593691 655.38274765 1187.96377754 C655.49529265 1188.80022205 655.60783764 1189.63666656 655.7237931 1190.49845788 C656.28016001 1194.63337199 656.8365649 1198.768281 657.39304101 1202.90318042 C658.34281963 1209.96065976 659.29247087 1217.01815592 660.24095317 1224.07580962 C660.73810756 1227.77509731 661.23542922 1231.4743625 661.73284912 1235.1736145 C661.82873651 1235.88674137 661.92462389 1236.59986823 662.02341695 1237.334605 C663.22423749 1246.26291821 664.43191164 1255.19026751 665.64823472 1264.11648208 C666.32024477 1269.04917048 666.99012242 1273.98214749 667.65992379 1278.91513622 C668.11125693 1282.23113393 668.56614521 1285.54663075 669.02117729 1288.86212254 C669.28783618 1290.82516521 669.55431804 1292.78823194 669.82058716 1294.75132751 C669.94187965 1295.62646386 670.06317214 1296.5016002 670.18814015 1297.40325582 C670.71286457 1301.29895727 671.15120283 1305.057625 671 1309 C670.34 1309 669.68 1309 669 1309 C668.47269287 1307.97044189 667.94538574 1306.94088379 667.40209961 1305.88012695 C654.5229114 1280.73165657 654.5229114 1280.73165657 641.5625 1255.625 C635.54723982 1244.0183933 629.58042748 1232.38740439 623.625 1220.75 C615.13049667 1204.15137869 606.60721102 1187.56790823 598.06054688 1170.99609375 C594.53793023 1164.16531703 591.01928469 1157.33249375 587.5 1150.5 C586.07946494 1147.742168 584.65889357 1144.98435471 583.23828125 1142.2265625 C582.88705704 1141.54473907 582.53583282 1140.86291565 582.17396545 1140.16043091 C580.07984294 1136.09541026 577.9849766 1132.03077396 575.88948059 1127.96646118 C567.07505379 1110.87038841 558.28366762 1093.76266497 549.51025391 1076.64550781 C544.40211447 1066.6800614 539.28629913 1056.71861424 534.1619873 1046.76147461 C521.79788951 1022.73611215 509.48013543 998.6870006 497.1875 974.625 C496.46077843 973.20249435 496.46077843 973.20249435 495.71937561 971.75125122 C494.73992876 969.83402529 493.76048235 967.91679913 492.78103638 965.99957275 C492.05411087 964.57665924 492.05411087 964.57665924 491.3125 963.125 C490.58521194 961.70136139 490.58521194 961.70136139 489.8432312 960.2489624 C483.17833031 947.20396287 476.49604879 934.16810142 469.79067993 921.14385986 C463.22727207 908.3953364 456.68779195 895.63466331 450.1541748 882.87084961 C444.15770627 871.15704627 438.14869105 859.44982556 432.125 847.75 C424.21803242 832.39218036 416.35505777 817.01202906 408.50366211 801.62573242 C403.96875805 792.74203444 399.42199026 783.86509438 394.828125 775.01171875 C394.42839981 774.24035583 394.02867462 773.46899292 393.61683655 772.67425537 C391.7666542 769.10411934 389.91265399 765.53609384 388.05053711 761.97216797 C387.40199297 760.72242828 386.75362565 759.47259681 386.10546875 758.22265625 C385.55012451 757.15797119 384.99478027 756.09328613 384.42260742 754.99633789 C383.02158723 752.04546767 381.96252511 749.11851139 381 746 C392.92146902 739.1843053 404.8901358 732.47593129 417 726 C425.22643597 721.60032251 433.39524459 717.12004781 441.5 712.5 C449.60476086 707.87994908 457.77367389 703.39988776 466 699 C477.23109925 692.99066945 488.3373077 686.78295205 499.40380859 680.4765625 C503.40723413 678.19964717 507.42187945 675.94281736 511.4375 673.6875 C512.11248535 673.30811279 512.7874707 672.92872559 513.48291016 672.5378418 C514.9884669 671.69164562 516.49420851 670.84577838 518 670 C515.92623303 667.92623303 514.64602492 667.31228742 511.96220398 666.24816895 C511.11575821 665.90962387 510.26931244 665.5710788 509.3972168 665.22227478 C508.46522461 664.85566238 507.53323242 664.48904999 506.57299805 664.11132812 C505.59160355 663.72054581 504.61020905 663.32976349 503.59907532 662.92713928 C500.32188245 661.62360272 497.04181125 660.32747108 493.76171875 659.03125 C491.45080779 658.11362763 489.14008615 657.19552834 486.82954407 656.27697754 C481.32087057 654.08827868 475.81040282 651.90414166 470.29902536 649.72226381 C463.61374952 647.075425 456.93082692 644.42266449 450.24804688 641.76953125 C443.08627304 638.92635873 435.92434061 636.08359346 428.76119995 633.24386597 C417.76311897 628.88294023 406.76829535 624.51440338 395.78759766 620.10986328 C394.82703492 619.72457018 393.86647219 619.33927708 392.87680149 618.94230843 C389.12608809 617.43758562 385.37544833 615.9326793 381.62485313 614.4276619 C369.53259726 609.57827974 357.4120913 604.81023517 345.25603294 600.12314606 C340.5056571 598.28900556 335.7602332 596.44208268 331.01485729 594.59505081 C327.04621359 593.05187657 323.07390278 591.51943054 319.09423828 590.00488281 C315.09754617 588.48313391 311.111483 586.93615159 307.13143921 585.37140274 C305.64874993 584.793677 304.16248709 584.22502478 302.67251587 583.6663475 C288.94293913 578.50929878 288.94293913 578.50929878 285.81600952 571.99334717 C285.54672638 571.3355426 285.27744324 570.67773804 285 570 C284.38086533 568.81504654 283.75513388 567.63351255 283.12231445 566.45581055 C282.5418335 565.27801025 281.96135254 564.10020996 281.36328125 562.88671875 C280.87676338 561.90588066 280.87676338 561.90588066 280.38041687 560.90522766 C279.35386664 558.83455871 278.33272792 556.76129026 277.3125 554.6875 C273.52543677 547.00670877 269.7322691 539.33501673 265.71033239 531.77383041 C259.04185725 519.23544238 252.7041779 506.53530929 246.36523438 493.828125 C245.12917757 491.35351482 243.89249847 488.87921578 242.65583801 486.40490723 C240.01211705 481.11460403 237.3698115 475.823596 234.72846985 470.53210449 C230.89925158 462.86099475 227.06735841 455.19122349 223.23478025 447.52179193 C216.99999455 435.04518252 210.76670509 422.56782629 204.53466797 410.08984375 C203.97737303 408.97401216 203.97737303 408.97401216 203.40881962 407.83563852 C200.39533767 401.80193185 197.3819291 395.76818852 194.3685236 389.73444366 C191.73416073 384.45966405 189.09976853 379.18489909 186.46533203 373.91015625 C186.09426486 373.16719378 185.72319769 372.42423131 185.34088606 371.65875483 C179.12915512 359.22155442 172.91582081 346.78515568 166.7013669 334.34931564 C162.88350743 326.70914672 159.06705926 319.06827611 155.25250876 311.42645454 C152.635121 306.18318145 150.01626867 300.94064154 147.39631832 295.69864845 C145.89122467 292.6871316 144.3869963 289.67519121 142.88414955 286.66255188 C137.2854152 275.44004432 131.64529098 264.25031282 125.76722634 253.17132908 C120.22548049 242.69526525 114.96433998 232.07661482 109.66552734 221.47631836 C108.46225436 219.07277165 107.25883056 216.66930097 106.05523682 214.26591492 C103.1525472 208.46875296 100.25201202 202.67051582 97.35238414 196.87182193 C94.99716566 192.16186325 92.64131074 187.45222346 90.28502274 182.74279976 C83.59110591 169.36373857 76.89883838 155.98385434 70.20873182 142.60288744 C69.84997239 141.88532863 69.49121296 141.16776982 69.12158203 140.4284668 C68.76238204 139.71002594 68.40318206 138.99158509 68.03309722 138.2513733 C62.18479038 126.55435132 56.33247316 114.85934091 50.47838514 103.16521137 C44.45434714 91.13147536 38.43327362 79.09626023 32.41531718 67.05948168 C29.04151695 60.31154904 25.66648318 53.56423992 22.28824997 46.81852531 C19.41985309 41.09080389 16.55419547 35.36172264 13.6921535 29.63082295 C12.23186345 26.70696462 10.76984 23.7839959 9.30521774 20.86230469 C7.72122966 17.7019735 6.14212754 14.53924977 4.56430054 11.37583923 C4.09642604 10.44523381 3.62855155 9.51462838 3.14649904 8.55582279 C2.51828813 7.29250278 2.51828813 7.29250278 1.87738609 6.00366116 C1.51219978 5.27350589 1.14701346 4.54335063 0.77076089 3.79106945 C0 2 0 2 0 0 Z " fill="#CC0003" transform="translate(88,176)"/>
<path d="M0 0 C0.66 0.33 1.32 0.66 2 1 C-9.98445853 13.00786742 -21.97181499 25.01283331 -33.96258545 37.01439762 C-39.530623 42.58758119 -45.09772487 48.16169334 -50.66259766 53.73803711 C-55.515583 58.6010212 -60.37035137 63.46221711 -65.22722721 68.32131571 C-67.7964254 70.89181221 -70.36475045 73.46316711 -72.93093872 76.03666878 C-75.80276554 78.91661278 -78.67856802 81.79255583 -81.5546875 84.66821289 C-82.39554398 85.51266464 -83.23640045 86.35711639 -84.10273743 87.22715759 C-85.29300789 88.41536606 -85.29300789 88.41536606 -86.50732422 89.62757874 C-87.18576385 90.30694016 -87.86420349 90.98630159 -88.5632019 91.68624973 C-90.59129447 93.61193234 -92.65461554 95.44421687 -94.77083588 97.27041531 C-99.08282193 101.02170147 -103.12935994 104.99555564 -107.15930176 109.04577637 C-107.94045113 109.82677688 -108.7216005 110.6077774 -109.52642107 111.41244459 C-112.12481356 114.01152762 -114.71962116 116.61415952 -117.31445312 119.21679688 C-119.18417999 121.0884443 -121.05410864 122.95988801 -122.92430115 124.83106995 C-126.94235549 128.85200127 -130.958632 132.87470115 -134.97373962 136.89857483 C-140.78700315 142.72443604 -146.60354223 148.54701831 -152.4209612 154.36872977 C-161.87175673 163.82658163 -171.32068181 173.28629963 -180.76806641 182.74755859 C-181.33265133 183.31297133 -181.89723626 183.87838407 -182.47892982 184.46093053 C-186.48600319 188.47390378 -190.49300941 192.48694409 -194.5 196.5 C-199.07726487 201.0841934 -203.65456012 205.66835645 -208.23193359 210.25244141 C-208.79582474 210.81716067 -209.35971588 211.38187994 -209.94069463 211.96371192 C-219.35446496 221.3911844 -228.77021135 230.8166809 -238.18736029 240.24077845 C-243.98777376 246.04566292 -249.78640688 251.85231494 -255.58272541 257.66128838 C-259.55567177 261.64268285 -263.53040395 265.62228856 -267.50652468 269.60051286 C-269.79741655 271.89274479 -272.08720028 274.18606473 -274.37531853 276.48106575 C-276.86145919 278.97444783 -279.35069742 281.46469731 -281.84069824 283.95422363 C-282.55510968 284.67223003 -283.26952111 285.39023643 -284.00558138 286.13000059 C-287.94294759 290.05936572 -291.9762876 293.80300468 -296.21565294 297.40561628 C-298.03028957 299.02706491 -299.66130755 300.73549473 -301.2890625 302.54296875 C-310.36854578 312.56255459 -320.10099677 318.46334161 -332.10302734 324.50976562 C-336.92072056 326.98803963 -341.61047467 329.68553198 -346.3125 332.375 C-348.23784787 333.46821154 -350.16363374 334.560652 -352.08984375 335.65234375 C-353.05776855 336.20132324 -354.02569336 336.75030273 -355.02294922 337.31591797 C-360.13138154 340.20569705 -365.25301872 343.07182431 -370.375 345.9375 C-371.41229248 346.51798096 -372.44958496 347.09846191 -373.51831055 347.6965332 C-377.73387774 350.05512298 -381.94995893 352.41279319 -386.16601562 354.77050781 C-398.23799859 361.52231793 -410.29951026 368.291563 -422.33642578 375.10571289 C-430.43152664 379.68563509 -438.54644164 384.22967662 -446.6640625 388.76953125 C-453.61969795 392.66158037 -460.56385204 396.57333772 -467.5 400.5 C-476.53940309 405.61734803 -485.59814296 410.6993318 -494.6640625 415.76953125 C-501.61969795 419.66158037 -508.56385204 423.57333772 -515.5 427.5 C-524.53940309 432.61734803 -533.59814296 437.6993318 -542.6640625 442.76953125 C-549.61969795 446.66158037 -556.56385204 450.57333772 -563.5 454.5 C-572.53940309 459.61734803 -581.59814296 464.6993318 -590.6640625 469.76953125 C-597.61969795 473.66158037 -604.56385204 477.57333772 -611.5 481.5 C-620.53940309 486.61734803 -629.59814296 491.6993318 -638.6640625 496.76953125 C-645.61969829 500.66158055 -652.56381803 504.57339742 -659.5 508.5 C-672.69637709 515.96932638 -685.931318 523.36936445 -699.16601562 530.77050781 C-710.28970968 536.99194386 -721.40812405 543.22197534 -732.5 549.5 C-743.59472704 555.77963839 -754.71613393 562.01100698 -765.84277344 568.23388672 C-772.09012696 571.7285786 -778.33524863 575.22725767 -784.58056641 578.72558594 C-789.45276927 581.45451207 -794.32549012 584.18249751 -799.20019531 586.9069519 C-800.93372871 587.87587756 -802.66706082 588.84516331 -804.40039062 589.81445312 C-806.58102939 591.03383072 -808.76200188 592.25261175 -810.94335938 593.47070312 C-812.41772461 594.29538086 -812.41772461 594.29538086 -813.921875 595.13671875 C-814.78393555 595.61842529 -815.64599609 596.10013184 -816.53417969 596.59643555 C-818.27495526 597.58729879 -819.99274814 598.61907227 -821.69238281 599.67895508 C-824 601 -824 601 -826 601 C-824.6440016 593.48482815 -822.73843999 586.21698113 -820.59765625 578.890625 C-820.06560413 577.05002147 -819.53355339 575.20941755 -819.00154591 573.36880112 C-818.42592084 571.38018552 -817.84828872 569.39216286 -817.27008057 567.40429688 C-816.03759792 563.16659738 -814.81097746 558.92721517 -813.58544922 554.6875 C-813.15113189 553.18517811 -812.71680557 551.68285882 -812.2824707 550.18054199 C-812.06179932 549.41725082 -811.84112793 548.65395966 -811.61376953 547.86753845 C-810.9225301 545.47736908 -810.23074256 543.08735893 -809.53881836 540.6973877 C-803.80950528 520.9047834 -798.12166583 501.10025542 -792.43356323 481.29577637 C-790.94041734 476.09732954 -789.44607815 470.89922665 -787.95134258 465.70123672 C-786.81220173 461.73931003 -785.6737535 457.77718454 -784.53547478 453.81501007 C-784.00737378 451.97722163 -783.47902036 450.13950571 -782.95038033 448.30187225 C-782.45407466 446.57646716 -781.95832661 444.85090157 -781.46317482 443.12516499 C-780.99011091 441.47914933 -780.51478047 439.83378312 -780.03700829 438.18912792 C-778.85940491 434.11300562 -777.74501937 430.03289533 -776.72633362 425.91395569 C-776.51705671 425.09271965 -776.30777981 424.27148361 -776.09216118 423.42536163 C-775.70050294 421.87836875 -775.32470617 420.32723202 -774.96844673 418.77170563 C-773.66529754 413.69574518 -771.87845359 411.40259142 -767.51171875 408.55859375 C-765.2662081 407.45655902 -762.98840397 406.41864198 -760.6875 405.4375 C-759.44584259 404.850088 -758.20745034 404.25573176 -756.97216797 403.6550293 C-754.35502923 402.38860538 -751.7263721 401.15268322 -749.08642578 399.93457031 C-742.81869734 397.00856683 -736.75539755 393.69229693 -730.6685791 390.41125488 C-727.95337136 388.95139078 -725.22940597 387.50829828 -722.50546265 386.06481934 C-714.57061429 381.85806591 -706.68339054 377.56791229 -698.81103516 373.24536133 C-691.4549768 369.21869068 -684.02372212 365.34542363 -676.57910156 361.4855957 C-670.23921681 358.1903697 -663.94925257 354.81614331 -657.6875 351.375 C-648.17738697 346.14935443 -638.59660708 341.06426863 -629 336 C-619.63463616 331.05716555 -610.28048572 326.10111664 -601 321 C-591.84115575 315.96785261 -582.61502664 311.06833388 -573.375 306.1875 C-559.3577243 298.78293105 -545.37029766 291.32580303 -531.40332031 283.82666016 C-525.60418372 280.71409631 -519.80193455 277.60734427 -514 274.5 C-507.0458741 270.77530091 -500.09214868 267.04986642 -493.140625 263.3203125 C-483.40183828 258.09693229 -473.66186069 252.87641129 -463.8984375 247.69921875 C-463.21701691 247.33788345 -462.53559631 246.97654816 -461.83352661 246.60426331 C-460.45394707 245.87278714 -459.07435925 245.14132658 -457.69476318 244.40988159 C-457.01174133 244.04774567 -456.32871948 243.68560974 -455.625 243.3125 C-454.94149475 242.95012238 -454.2579895 242.58774475 -453.55377197 242.21438599 C-444.52894166 237.42778521 -435.53871849 232.58492948 -426.58447266 227.66723633 C-417.35928016 222.61770219 -408.05298831 217.72262864 -398.75250244 212.81375122 C-390.13689791 208.26517007 -381.53810195 203.69305759 -373 199 C-363.84115575 193.96785261 -354.61502664 189.06833388 -345.375 184.1875 C-331.3577243 176.78293105 -317.37029766 169.32580303 -303.40332031 161.82666016 C-297.60418372 158.71409631 -291.80193455 155.60734427 -286 152.5 C-279.0458741 148.77530091 -272.09214868 145.04986642 -265.140625 141.3203125 C-252.09577405 134.32352881 -239.03596667 127.35610881 -225.96008301 120.4175415 C-216.62888238 115.46567031 -207.30856978 110.49432397 -198 105.5 C-187.3337636 99.77724759 -176.64952013 94.08936463 -165.95697021 88.41598511 C-156.66777378 83.48672021 -147.39056486 78.53608481 -138.125 73.5625 C-127.04316747 67.61491098 -115.9331672 61.72199511 -104.81402588 55.84451294 C-95.19362458 50.75858974 -85.58738958 45.64796323 -76 40.5 C-64.25975084 34.19605559 -52.48943833 27.95048159 -40.703125 21.7331543 C-33.67632777 18.02370266 -26.66587001 14.28815713 -19.6875 10.48828125 C-18.37635196 9.77660081 -17.06515518 9.06501016 -15.75390625 8.35351562 C-13.29854974 7.02097779 -10.84907198 5.67837868 -8.40234375 4.33007812 C-7.32082031 3.74291016 -6.23929688 3.15574219 -5.125 2.55078125 C-3.70574219 1.77214722 -3.70574219 1.77214722 -2.2578125 0.9777832 C-1.51273438 0.65511475 -0.76765625 0.33244629 0 0 Z " fill="#CC0003" transform="translate(1874,1)"/>
<path d="M0 0 C4.63040383 1.40113211 8.79376309 3.32044777 13.0390625 5.60546875 C14.04348892 6.13899712 14.04348892 6.13899712 15.06820679 6.68330383 C17.25618917 7.84695396 19.44058918 9.01716117 21.625 10.1875 C23.16255503 11.00689594 24.70031816 11.82590148 26.23828125 12.64453125 C30.82892624 15.09000662 35.4149835 17.54399181 40 20 C41.26138645 20.67530564 42.52277925 21.35059941 43.78417969 22.02587891 C48.31631849 24.45304028 52.84779574 26.88142106 57.37744141 29.31323242 C66.56670488 34.24356291 75.78041498 39.12667313 85 44 C96.48099387 50.06867184 107.94157249 56.17301525 119.3828125 62.31640625 C128.57057101 67.24514686 137.78227808 72.12759172 147 77 C158.52716079 83.09337874 170.0352746 89.22008418 181.5234375 95.38671875 C190.33633132 100.11509786 199.16542049 104.81229896 208 109.5 C223.82979301 117.90046425 239.6268915 126.3609435 255.41796875 134.83398438 C258.86170241 136.68150625 262.30574198 138.52845586 265.75 140.375 C266.89065918 140.98657959 268.03131836 141.59815918 269.20654297 142.22827148 C275.49817394 145.5985063 281.79579806 148.95706092 288.1015625 152.30078125 C288.78298309 152.66211655 289.46440369 153.02345184 290.16647339 153.39573669 C291.54605293 154.12721286 292.92564075 154.85867342 294.30523682 155.59011841 C294.98825867 155.95225433 295.67128052 156.31439026 296.375 156.6875 C297.05850525 157.04987762 297.7420105 157.41225525 298.44622803 157.78561401 C306.6172497 162.1193707 314.76748502 166.48567503 322.875 170.9375 C332.07643867 175.9886148 341.34397889 180.9097732 350.625 185.8125 C364.64223543 193.217146 378.62970161 200.67419658 392.59667969 208.17333984 C398.39581633 211.28590371 404.19808929 214.39261113 410 217.5 C412.33334784 218.74997291 414.66668119 219.99997289 417 221.25 C418.155 221.86875 419.31 222.4875 420.5 223.125 C459 243.75 459 243.75 462.49902344 245.62451172 C464.83557328 246.87621157 467.17216191 248.12783902 469.50878906 249.37939453 C475.29322791 252.47779835 481.07701723 255.57740143 486.859375 258.6796875 C496.59816172 263.90306771 506.33813931 269.12358871 516.1015625 274.30078125 C516.78298309 274.66211655 517.46440369 275.02345184 518.16647339 275.39573669 C519.54605293 276.12721286 520.92564075 276.85867342 522.30523682 277.59011841 C522.98825867 277.95225433 523.67128052 278.31439026 524.375 278.6875 C525.05850525 279.04987762 525.7420105 279.41225525 526.44622803 279.78561401 C534.6172497 284.1193707 542.76748502 288.48567503 550.875 292.9375 C560.07643867 297.9886148 569.34397889 302.9097732 578.625 307.8125 C592.64223543 315.217146 606.62970161 322.67419658 620.59667969 330.17333984 C626.39581633 333.28590371 632.19808929 336.39261113 638 339.5 C640.33334784 340.74997291 642.66668119 341.99997289 645 343.25 C646.155 343.86875 647.31 344.4875 648.5 345.125 C659 350.75 659 350.75 662.49902344 352.62451172 C664.83557328 353.87621157 667.17216191 355.12783902 669.50878906 356.37939453 C675.29322791 359.47779835 681.07701723 362.57740143 686.859375 365.6796875 C699.22584947 372.31261471 711.6045167 378.92148523 724 385.5 C733.91879124 390.76461115 743.83371944 396.03627193 753.73461914 401.33447266 C755.50829501 402.28349704 757.28246019 403.23160673 759.05664062 404.1796875 C760.13236328 404.75589844 761.20808594 405.33210938 762.31640625 405.92578125 C763.24912354 406.42505127 764.18184082 406.92432129 765.14282227 407.4387207 C766.08569092 407.95394287 767.02855957 408.46916504 768 409 C768.596418 409.25999786 769.192836 409.51999573 769.80732727 409.78787231 C773.40309694 411.49085771 775.31925599 412.8614902 776.69555664 416.66894531 C777.12821331 418.21449381 777.53069709 419.76866269 777.91015625 421.328125 C778.27214615 422.65938164 778.27214615 422.65938164 778.64144897 424.01753235 C779.18101958 426.01229294 779.70811409 428.01045661 780.224823 430.01126099 C781.56975417 435.21121402 782.99338254 440.38958851 784.40799904 445.57094002 C784.96016156 447.59746723 785.50887265 449.62490872 786.05729675 451.65245056 C791.5845248 472.02965497 797.53753193 492.28837102 803.41183472 512.56750488 C805.40730421 519.45654096 807.39882064 526.34671442 809.38891602 533.23730469 C809.86678983 534.89186519 809.86678983 534.89186519 810.35431767 536.57985115 C812.77671952 544.96807123 815.19752637 553.35675141 817.61720943 561.74575615 C819.09527806 566.86917705 820.57661701 571.99162556 822.062747 577.11271381 C822.66034141 579.17369455 823.25625597 581.23515108 823.85133362 583.29685974 C824.53032827 585.64903984 825.21215338 588.00040582 825.89756775 590.35072327 C826.32544334 591.83795143 826.32544334 591.83795143 826.76196289 593.35522461 C827.00443253 594.19153915 827.24690216 595.0278537 827.49671936 595.88951111 C828 598 828 598 828 601 C822.40139207 599.4403234 817.78270905 596.73250964 812.8125 593.8125 C810.93188506 592.722412 809.05032748 591.63394906 807.16796875 590.546875 C806.16942871 589.97001953 805.17088867 589.39316406 804.14208984 588.79882812 C798.66728354 585.66453342 793.14507788 582.61612659 787.625 579.5625 C778.24408665 574.36636843 768.88893888 569.12812972 759.55859375 563.84179688 C752.59162818 559.89577696 745.612135 555.9726917 738.625 552.0625 C737.58730469 551.48177734 736.54960938 550.90105469 735.48046875 550.30273438 C732.32051035 548.53480226 729.16030422 546.76731386 726 545 C712.8708703 537.65789261 699.75034094 530.30171411 686.65917969 522.89208984 C675.46050486 516.55715696 664.22961975 510.2798583 653 504 C639.87230126 496.65869284 626.7527374 489.30411895 613.66357422 481.89428711 C606.62024036 477.90941754 599.56293416 473.95001133 592.5 470 C583.5406579 464.98940497 574.59718026 459.95170949 565.6640625 454.89453125 C558.62053653 450.90963231 551.56309283 446.95010006 544.5 443 C535.5406579 437.98940497 526.59718026 432.95170949 517.6640625 427.89453125 C510.62053653 423.90963231 503.56309283 419.95010006 496.5 416 C487.5406579 410.98940497 478.59718026 405.95170949 469.6640625 400.89453125 C462.62053653 396.90963231 455.56309283 392.95010006 448.5 389 C439.5406579 383.98940497 430.59718026 378.95170949 421.6640625 373.89453125 C414.62053653 369.90963231 407.56309283 365.95010006 400.5 362 C392.48877949 357.51965075 384.4878194 353.02193908 376.5 348.5 C369.59647728 344.59251357 362.68764224 340.69493025 355.76464844 336.82202148 C353.66904585 335.64760408 351.57594344 334.46871441 349.48535156 333.28540039 C344.24127216 330.32554441 338.97704637 327.4569955 333.6015625 324.7421875 C318.58245793 317.01354191 307.68034501 307.98757851 296.43920898 295.50024414 C294.4697877 293.48154297 292.49510181 291.67553299 290.3575058 289.84659576 C286.00375708 286.05425222 281.91185827 282.04586998 277.84069824 277.95422363 C277.05954887 277.17322312 276.2783995 276.3922226 275.47357893 275.58755541 C272.87518644 272.98847238 270.28037884 270.38584048 267.68554688 267.78320312 C265.81582001 265.9115557 263.94589136 264.04011199 262.07569885 262.16893005 C258.05764451 258.14799873 254.041368 254.12529885 250.02626038 250.10142517 C244.21299685 244.27556396 238.39645777 238.45298169 232.5790388 232.63127023 C223.12824327 223.17341837 213.67931819 213.71370037 204.23193359 204.25244141 C203.38505621 203.4043223 203.38505621 203.4043223 202.52107018 202.53906947 C197.94065282 197.95190805 193.36032629 193.36465592 188.78000355 188.77740002 C184.77606698 184.76741046 180.77209412 180.75745714 176.76806641 176.74755859 C176.20417526 176.18283933 175.64028412 175.61812006 175.05930537 175.03628808 C165.64553504 165.6088156 156.22978865 156.1833191 146.81263971 146.75922155 C141.01222624 140.95433708 135.21359312 135.14768506 129.41727459 129.33871162 C125.44432823 125.35731715 121.46959605 121.37771144 117.49347532 117.39948714 C115.20258345 115.10725521 112.91279972 112.81393527 110.62468147 110.51893425 C108.13854081 108.02555217 105.64930258 105.53530269 103.15930176 103.04577637 C102.44489032 102.32776997 101.73047889 101.60976357 100.99441862 100.86999941 C97.04374958 96.92735848 92.98503158 93.17872284 88.75953054 89.53244233 C86.67352353 87.71565918 84.69152547 85.81734603 82.73510742 83.86209106 C81.62056435 82.75177773 81.62056435 82.75177773 80.48350525 81.61903381 C79.30637718 80.4388694 79.30637718 80.4388694 78.10546875 79.23486328 C76.83087547 77.96289848 76.83087547 77.96289848 75.53053284 76.66523743 C73.22548314 74.36380726 70.92266196 72.06017782 68.62101746 69.75534296 C66.20555614 67.33733225 63.78763606 64.92178211 61.37011719 62.50582886 C57.32030513 58.45782856 53.27258992 54.40774058 49.22607422 50.35644531 C44.54377015 45.66867475 39.85783981 40.98455214 35.17006016 36.30225766 C31.13836976 32.27509611 27.10861969 28.24600077 23.08050442 24.21526325 C20.67721198 21.81041008 18.2732447 19.40624197 15.86752319 17.00381851 C13.19572148 14.33453924 10.52711703 11.66210529 7.859375 8.98876953 C7.05842911 8.18984787 6.25748322 7.39092621 5.43226624 6.5677948 C4.35156105 5.48285988 4.35156105 5.48285988 3.24902344 4.37600708 C2.30225739 3.42867549 2.30225739 3.42867549 1.33636475 2.46220589 C0 1 0 1 0 0 Z " fill="#CC0003" transform="translate(1,1)"/>
<path d="M0 0 C2.99144132 2.59832254 4.54039384 5.59587051 6.37109375 9.08203125 C6.68931091 9.68378677 7.00752808 10.2855423 7.33538818 10.90553284 C8.0184832 12.19860508 8.69912036 13.49297817 9.37753296 14.78851318 C10.81150521 17.52665581 12.25738745 20.25844215 13.70283508 22.99053955 C14.43297961 24.37072544 15.16254189 25.75121951 15.89152527 27.13201904 C18.94188894 32.90627882 22.04860312 38.6483673 25.1875 44.375 C28.25476405 49.97438842 31.31574803 55.57667443 34.34765625 61.1953125 C35.19312012 62.76031494 35.19312012 62.76031494 36.05566406 64.35693359 C37.17216615 66.42809323 38.28489199 68.50129364 39.39355469 70.57666016 C41.69968515 74.87188109 44.01151805 79.11317815 46.66796875 83.203125 C47.25143066 84.12254883 47.25143066 84.12254883 47.84667969 85.06054688 C48.83748582 86.59509889 49.8678591 88.10392218 50.90234375 89.609375 C54.13170913 99.58478123 47.86121478 114.28073551 45.3984375 124.3125 C44.92806499 126.24306126 44.45812667 128.17372834 43.98858643 130.10449219 C42.71948911 135.31901987 41.44543816 140.53232534 40.17047882 145.74542236 C38.00650559 154.59898164 35.85181517 163.45480847 33.69652939 172.31048584 C33.13603971 174.61330145 32.57538206 176.91607618 32.0145607 179.21881104 C27.96448605 195.8512484 23.95623634 212.49326598 19.9854393 229.14480591 C19.14848718 232.65453026 18.31080349 236.16407927 17.47293091 239.67358398 C15.06295213 249.7701216 12.65565908 259.8672637 10.26025391 269.9672699 C9.27614758 274.11119198 8.28717034 278.2539404 7.29689789 282.39639282 C6.83756068 284.32276758 6.3803912 286.24966067 5.92551422 288.17709351 C5.30561216 290.8030026 4.67838368 293.42705526 4.04931641 296.05078125 C3.86974081 296.81975739 3.69016521 297.58873352 3.50514793 298.38101196 C2.69238691 301.73937226 1.9382456 304.09263161 0 307 C-7.13055138 278.75703183 -14.02411849 250.4614193 -20.79878616 222.13113403 C-22.89286328 213.37429916 -24.98884871 204.61792056 -27.08459282 195.86148453 C-27.61065522 193.66321672 -28.13660191 191.46492121 -28.66243172 189.26659775 C-31.99803482 175.32214781 -35.35501686 161.38315737 -38.74243355 147.4512043 C-39.95568904 142.4576278 -41.16430854 137.46292703 -42.3728323 132.46820354 C-43.48423799 127.8774486 -44.60344981 123.28868871 -45.72844887 118.70124722 C-46.4094055 115.91627785 -47.0827972 113.12952248 -47.75395203 110.34217644 C-48.2076509 108.46822781 -48.67074459 106.59656148 -49.13415527 104.72499084 C-49.39805054 103.62271652 -49.6619458 102.5204422 -49.93383789 101.38476562 C-50.16567276 100.43396118 -50.39750763 99.48315674 -50.6363678 98.50354004 C-51.26865709 94.15034595 -49.71810277 91.19502908 -47.734375 87.38671875 C-47.26322266 86.48050781 -46.79207031 85.57429687 -46.30664062 84.640625 C-45.79294922 83.66609375 -45.27925781 82.6915625 -44.75 81.6875 C-44.21568359 80.66785156 -43.68136719 79.64820313 -43.13085938 78.59765625 C-38.86617064 70.51510297 -34.39494109 62.56184152 -29.85839844 54.62963867 C-25.55699659 47.07528566 -21.52450125 39.40361903 -17.54589844 31.67553711 C-11.99458237 20.95056436 -6.01349834 10.47092348 0 0 Z " fill="#CC0003" transform="translate(938,736)"/>
<path d="M0 0 C2 1 2 1 2 1 Z " fill="#CC0003" transform="translate(1006,701)"/>
<path d="M0 0 C2 1 2 1 2 1 Z " fill="#CC0003" transform="translate(869,701)"/>
<path d="M0 0 C2 1 2 1 2 1 Z " fill="#CC0003" transform="translate(1008,700)"/>
<path d="M0 0 C2 1 2 1 2 1 Z " fill="#CC0003" transform="translate(867,700)"/>
<path d="M0 0 C2 1 2 1 2 1 Z " fill="#CC0003" transform="translate(1010,699)"/>
<path d="M0 0 C2 1 2 1 2 1 Z " fill="#CC0003" transform="translate(865,699)"/>
<path d="" fill="#CC0003" transform="translate(0,0)"/>
<path d="" fill="#CC0003" transform="translate(0,0)"/>
</svg>
